<svg width="123" height="29" viewBox="0 0 123 29" fill="none" xmlns="http://www.w3.org/2000/svg">
<path d="M17.0509 14.1166L8.40526 0.50416H0.917727L9.56347 14.1166L0.917824 27.7288H8.40526L17.0509 14.1166Z" fill="url(#paint0_linear_307_1657)"/>
<path d="M8.68197 0L8.83066 0.233371L14.1066 8.5402L19.3825 0.233371L19.5312 0H28.2132L19.2467 14.1165L28.2132 28.233H19.5312L19.3825 27.9996L14.1066 19.6918L8.83066 27.9996L8.68197 28.233H0L8.96556 14.1165L0 0H8.68197ZM14.7033 9.48057L17.4762 13.8467L17.6485 14.1165L14.7033 18.7524L20.0846 27.2246H26.3778L18.0522 14.1165L18.2246 13.8467L26.3778 1.00832H20.0846L14.7033 9.48057ZM9.98865 13.8467L10.161 14.1165L1.83545 27.2246H8.12858L13.5089 18.7524L10.737 14.3873L10.5657 14.1165L13.5089 9.48057L8.12858 1.00832H1.83545L9.98865 13.8467ZM11.7591 14.1165L14.1066 17.812L16.4531 14.1165L14.1066 10.4209L11.7591 14.1165Z" fill="url(#paint1_linear_307_1657)"/>
<path d="M116.246 23.0464C112.234 23.0464 109.55 20.1646 109.55 15.87C109.55 11.6038 112.205 8.66541 116.104 8.66541C119.806 8.66541 122.32 11.293 122.32 15.1637V16.1243H111.443C111.584 19.4582 113.336 21.3794 116.274 21.3794C118.506 21.3794 119.947 20.4188 120.455 18.6106H122.32C121.585 21.4925 119.466 23.0464 116.246 23.0464ZM116.104 10.3324C113.533 10.3324 111.838 12.0276 111.499 14.7116H120.371C120.371 12.0841 118.675 10.3324 116.104 10.3324Z" fill="url(#paint2_linear_307_1657)"/>
<path d="M106.783 22.7075H104.862V10.6716H102.121V9.03286H104.862V4.71008H106.783V9.03286H109.523V10.6716H106.783V22.7075Z" fill="url(#paint3_linear_307_1657)"/>
<path d="M99.0479 9.03326H100.997V22.7079H99.3022L99.0479 20.3911C98.285 21.9733 96.3921 23.047 94.2448 23.047C91.0239 23.047 89.2722 20.8432 89.2722 17.5093V9.005H91.25V16.8877C91.25 20.1369 92.6909 21.2952 94.8664 21.2952C97.4939 21.2952 99.0479 19.5435 99.0479 16.2944V9.03326Z" fill="url(#paint4_linear_307_1657)"/>
<path d="M75.2166 15.8983C75.2166 11.6038 77.8441 8.66541 81.8278 8.66541C84.9922 8.66541 87.309 10.5019 87.8458 13.3272H85.8963C85.3878 11.4342 83.7491 10.3889 81.8561 10.3889C79.0873 10.3889 77.1378 12.5079 77.1378 15.87C77.1378 19.1192 78.946 21.2947 81.7148 21.2947C83.7491 21.2947 85.3878 20.1646 85.9246 18.4128H87.9023C87.2525 21.2099 84.8227 23.0464 81.7148 23.0464C77.8441 23.0464 75.2166 20.1928 75.2166 15.8983Z" fill="url(#paint5_linear_307_1657)"/>
<path d="M68.3977 23.0464C64.3857 23.0464 61.7017 20.1646 61.7017 15.87C61.7017 11.6038 64.3575 8.66541 68.2564 8.66541C71.9576 8.66541 74.4722 11.293 74.4722 15.1637V16.1243H63.5946C63.7359 19.4582 65.4876 21.3794 68.426 21.3794C70.658 21.3794 72.0989 20.4188 72.6075 18.6106H74.4722C73.7376 21.4925 71.6186 23.0464 68.3977 23.0464ZM68.2564 10.3324C65.6854 10.3324 63.9902 12.0276 63.6511 14.7116H72.5227C72.5227 12.0841 70.8275 10.3324 68.2564 10.3324Z" fill="url(#paint6_linear_307_1657)"/>
<path d="M52.2228 22.7074H49.9343L54.8222 15.8701L49.9626 9.03278H52.2511L56.1218 14.5139L59.9643 9.03278H62.2245L57.365 15.8984L62.1963 22.7074H59.8795L56.0371 17.2263L52.2228 22.7074Z" fill="url(#paint7_linear_307_1657)"/>
<path d="M44.3767 23.0464C40.3647 23.0464 37.6807 20.1646 37.6807 15.87C37.6807 11.6038 40.3365 8.66541 44.2354 8.66541C47.9366 8.66541 50.4512 11.293 50.4512 15.1637V16.1243H39.5736C39.7149 19.4582 41.4666 21.3794 44.405 21.3794C46.637 21.3794 48.0779 20.4188 48.5865 18.6106H50.4512C49.7166 21.4925 47.5976 23.0464 44.3767 23.0464ZM44.2354 10.3324C41.6644 10.3324 39.9692 12.0276 39.6301 14.7116H48.5017C48.5017 12.0841 46.8065 10.3324 44.2354 10.3324Z" fill="url(#paint8_linear_307_1657)"/>
<defs>
<linearGradient id="paint0_linear_307_1657" x1="8.98427" y1="0.50416" x2="8.98427" y2="27.7288" gradientUnits="userSpaceOnUse">
<stop stop-color="#34C759"/>
<stop offset="1" stop-color="#19612B"/>
</linearGradient>
<linearGradient id="paint1_linear_307_1657" x1="8.98427" y1="0.50416" x2="8.98427" y2="27.7288" gradientUnits="userSpaceOnUse">
<stop stop-color="#34C759"/>
<stop offset="1" stop-color="#19612B"/>
</linearGradient>
<linearGradient id="paint2_linear_307_1657" x1="35.6067" y1="12.6169" x2="124.403" y2="12.6169" gradientUnits="userSpaceOnUse">
<stop stop-color="#34C759"/>
<stop offset="1" stop-color="#19612B"/>
</linearGradient>
<linearGradient id="paint3_linear_307_1657" x1="35.6076" y1="12.6171" x2="124.404" y2="12.6171" gradientUnits="userSpaceOnUse">
<stop stop-color="#34C759"/>
<stop offset="1" stop-color="#19612B"/>
</linearGradient>
<linearGradient id="paint4_linear_307_1657" x1="35.6064" y1="12.6174" x2="124.403" y2="12.6174" gradientUnits="userSpaceOnUse">
<stop stop-color="#34C759"/>
<stop offset="1" stop-color="#19612B"/>
</linearGradient>
<linearGradient id="paint5_linear_307_1657" x1="35.6079" y1="12.6169" x2="124.404" y2="12.6169" gradientUnits="userSpaceOnUse">
<stop stop-color="#34C759"/>
<stop offset="1" stop-color="#19612B"/>
</linearGradient>
<linearGradient id="paint6_linear_307_1657" x1="35.6073" y1="12.6169" x2="124.404" y2="12.6169" gradientUnits="userSpaceOnUse">
<stop stop-color="#34C759"/>
<stop offset="1" stop-color="#19612B"/>
</linearGradient>
<linearGradient id="paint7_linear_307_1657" x1="35.6066" y1="12.6169" x2="124.403" y2="12.6169" gradientUnits="userSpaceOnUse">
<stop stop-color="#34C759"/>
<stop offset="1" stop-color="#19612B"/>
</linearGradient>
<linearGradient id="paint8_linear_307_1657" x1="35.6069" y1="12.6169" x2="124.403" y2="12.6169" gradientUnits="userSpaceOnUse">
<stop stop-color="#34C759"/>
<stop offset="1" stop-color="#19612B"/>
</linearGradient>
</defs>
</svg>
