<svg width="44" height="47" viewBox="0 0 44 47" fill="none" xmlns="http://www.w3.org/2000/svg">
<path d="M24.9103 14.0001L16.3359 0.5H8.91016L17.4846 14.0001L8.91025 27.5H16.3359L24.9103 14.0001Z" fill="url(#paint0_linear_287_1610)"/>
<path d="M16.6104 0L16.7578 0.231445L21.9902 8.46973L27.2227 0.231445L27.3701 0H35.9805L27.0879 14L35.9805 28H27.3701L27.2227 27.7686L21.9902 19.5293L16.7578 27.7686L16.6104 28H8L16.8916 14L8 0H16.6104ZM22.582 9.40234L25.332 13.7324L25.5029 14L22.582 18.5977L27.9189 27H34.1602L25.9033 14L26.0742 13.7324L34.1602 1H27.9189L22.582 9.40234ZM17.9062 13.7324L18.0771 14L9.82031 27H16.0615L21.3975 18.5977L18.6484 14.2686L18.4785 14L21.3975 9.40234L16.0615 1H9.82031L17.9062 13.7324ZM19.6621 14L21.9902 17.665L24.3174 14L21.9902 10.335L19.6621 14Z" fill="url(#paint1_linear_287_1610)"/>
<path d="M4.34551 46.168C2.35751 46.168 1.02751 44.74 1.02751 42.612C1.02751 40.498 2.34351 39.042 4.27551 39.042C6.10951 39.042 7.35551 40.344 7.35551 42.262V42.738H1.96551C2.03551 44.39 2.90351 45.342 4.35951 45.342C5.46551 45.342 6.17951 44.866 6.43151 43.97H7.35551C6.99151 45.398 5.94151 46.168 4.34551 46.168ZM4.27551 39.868C3.00151 39.868 2.16151 40.708 1.99351 42.038H6.38951C6.38951 40.736 5.54951 39.868 4.27551 39.868ZM8.23357 46H7.09957L9.52157 42.612L7.11357 39.224H8.24757L10.1656 41.94L12.0696 39.224H13.1896L10.7816 42.626L13.1756 46H12.0276L10.1236 43.284L8.23357 46ZM16.2482 46.168C14.2602 46.168 12.9302 44.74 12.9302 42.612C12.9302 40.498 14.2462 39.042 16.1782 39.042C18.0122 39.042 19.2582 40.344 19.2582 42.262V42.738H13.8682C13.9382 44.39 14.8062 45.342 16.2622 45.342C17.3682 45.342 18.0822 44.866 18.3342 43.97H19.2582C18.8942 45.398 17.8442 46.168 16.2482 46.168ZM16.1782 39.868C14.9042 39.868 14.0642 40.708 13.8962 42.038H18.2922C18.2922 40.736 17.4522 39.868 16.1782 39.868ZM19.6267 42.626C19.6267 40.498 20.9287 39.042 22.9027 39.042C24.4707 39.042 25.6187 39.952 25.8847 41.352H24.9187C24.6667 40.414 23.8547 39.896 22.9167 39.896C21.5447 39.896 20.5787 40.946 20.5787 42.612C20.5787 44.222 21.4747 45.3 22.8467 45.3C23.8547 45.3 24.6667 44.74 24.9327 43.872H25.9127C25.5907 45.258 24.3867 46.168 22.8467 46.168C20.9287 46.168 19.6267 44.754 19.6267 42.626ZM31.4362 39.224H32.4022V46H31.5622L31.4362 44.852C31.0582 45.636 30.1202 46.168 29.0562 46.168C27.4602 46.168 26.5922 45.076 26.5922 43.424V39.21H27.5722V43.116C27.5722 44.726 28.2862 45.3 29.3642 45.3C30.6662 45.3 31.4362 44.432 31.4362 42.822V39.224ZM35.2684 46H34.3164V40.036H32.9584V39.224H34.3164V37.082H35.2684V39.224H36.6264V40.036H35.2684V46ZM39.958 46.168C37.97 46.168 36.64 44.74 36.64 42.612C36.64 40.498 37.956 39.042 39.888 39.042C41.722 39.042 42.968 40.344 42.968 42.262V42.738H37.578C37.648 44.39 38.516 45.342 39.972 45.342C41.078 45.342 41.792 44.866 42.044 43.97H42.968C42.604 45.398 41.554 46.168 39.958 46.168ZM39.888 39.868C38.614 39.868 37.774 40.708 37.606 42.038H42.002C42.002 40.736 41.162 39.868 39.888 39.868Z" fill="url(#paint2_linear_287_1610)"/>
<defs>
<linearGradient id="paint0_linear_287_1610" x1="16.9102" y1="0.5" x2="16.9102" y2="27.5" gradientUnits="userSpaceOnUse">
<stop stop-color="#34C759"/>
<stop offset="1" stop-color="#19612B"/>
</linearGradient>
<linearGradient id="paint1_linear_287_1610" x1="16.9102" y1="0.5" x2="16.9102" y2="27.5" gradientUnits="userSpaceOnUse">
<stop stop-color="#34C759"/>
<stop offset="1" stop-color="#19612B"/>
</linearGradient>
<linearGradient id="paint2_linear_287_1610" x1="0" y1="41" x2="44" y2="41" gradientUnits="userSpaceOnUse">
<stop stop-color="#34C759"/>
<stop offset="1" stop-color="#19612B"/>
</linearGradient>
</defs>
</svg>
